# xmcd
#
# Track frame offsets:
#	150
#	29211
#	52783
#	91615
#	104862
#	131000
#	176414
#	218817
#	246115
#
# Disc length: 3725 seconds
#
# Revision: 1
# Processed by: cddbd v1.4PL0 Copyright (c) Steve Scherf et al.
# Submitted via: audiograbber 1.82.02
#
DISCID=7a0e8b09
DTITLE=Rory Gallagher - Live In Europe
DYEAR=1972
DGENRE=Blues
TTITLE0=Rory Gallagher  Live In Europe -  Messin With The Kid
TTITLE1=Rory Gallagher  Live In Europe -  Laundromat
TTITLE2=Rory Gallagher   Live In Europe -  I Could ve Had Religion
TTITLE3=Rory Gallagher   Live In Europe -  Pistol Slapper blues
TTITLE4=Rory Gallagher   Live In Europe -  Going To My Home Town
TTITLE5=Rory Gallagher - In Your Town
TTITLE6=Rory Gallagher  Live In Europe - What In The World (Rare Live) bonus tr
TTITLE6=ack
TTITLE7=Rory Gallagher  Live In Europe - Hoodoo   (Rare Live) bonus track
TTITLE8=Rory Gallagher -  Bullfrog Blues
EXTD=
EXTT0=
EXTT1=
EXTT2=
EXTT3=
EXTT4=
EXTT5=
EXTT6=
EXTT7=
EXTT8=
PLAYORDER=
